<svg xmlns="http://www.w3.org/2000/svg" width="50" height="50" fill="none" viewBox="0 0 50 50">
    <path fill="#A605AD" d="M25 50c13.807 0 25-11.193 25-25S38.807 0 25 0 0 11.193 0 25s11.193 25 25 25z"/>
    <path fill="#fff" d="M25.463 28.688c-1.255 0-2.481-.372-3.525-1.069-1.043-.697-1.856-1.688-2.337-2.847-.48-1.159-.606-2.435-.361-3.665.245-1.231.849-2.361 1.736-3.249.888-.887 2.018-1.491 3.249-1.736 1.23-.245 2.506-.12 3.665.361 1.16.48 2.15 1.294 2.847 2.337.698 1.043 1.07 2.27 1.07 3.525-.003 1.682-.672 3.294-1.861 4.483-1.19 1.189-2.801 1.858-4.483 1.86zm0-11.584c-1.036 0-2.05.307-2.91.883-.863.576-1.534 1.394-1.93 2.352-.398.957-.501 2.01-.3 3.027.203 1.016.702 1.95 1.435 2.683.732.733 1.666 1.232 2.682 1.434 1.017.203 2.07.099 3.028-.297.957-.397 1.776-1.069 2.352-1.93.575-.862.883-1.875.883-2.911-.001-1.39-.554-2.721-1.536-3.704-.983-.982-2.314-1.535-3.704-1.537z"/>
    <path fill="#fff" d="M25.738 28.137h-1.103v6.619h1.103v-6.619z"/>
    <path fill="#fff" d="M28.496 30.895h-6.619v1.103h6.619v-1.103z"/>
</svg>
