<svg xmlns="http://www.w3.org/2000/svg" width="50" height="50" fill="none" viewBox="0 0 50 50">
    <path fill="#A605AD" d="M25 50c13.807 0 25-11.193 25-25S38.807 0 25 0 0 11.193 0 25s11.193 25 25 25z"/>
    <path fill="#fff" d="M23.336 32.573c-1.467-.001-2.888-.51-4.021-1.442-1.133-.93-1.909-2.226-2.194-3.665-.285-1.438-.063-2.931.63-4.225.691-1.293 1.81-2.306 3.166-2.867 1.355-.56 2.863-.634 4.266-.207 1.404.426 2.616 1.326 3.43 2.546.814 1.22 1.18 2.685 1.036 4.144-.144 1.46-.79 2.824-1.828 3.861-.588.59-1.288 1.057-2.057 1.375-.77.318-1.595.481-2.428.48zm0-11.578c-1.212 0-2.386.422-3.322 1.19-.936.77-1.577 1.84-1.813 3.029-.235 1.189-.052 2.422.52 3.49.572 1.069 1.497 1.906 2.616 2.37 1.12.462 2.366.523 3.525.17 1.16-.352 2.161-1.095 2.834-2.103.673-1.007.975-2.217.856-3.423-.12-1.206-.653-2.334-1.51-3.19-.486-.487-1.064-.873-1.7-1.136-.636-.264-1.318-.398-2.006-.397z"/>
    <path fill="#fff" d="M31.914 17.262l-4.68 4.68.78.78 4.68-4.68-.78-.78z"/>
    <path fill="#fff" d="M33.12 22.513h-1.1V18.1h-4.414V17h5.516l-.003 5.513z"/>
</svg>
